HIERARCHY
ROOT Hips
{
	OFFSET 0.000000 0.000000 0.000000 
	CHANNELS 6 Xposition Yposition Zposition Zrotation Yrotation Xrotation
	JOINT LeftUpLeg
	{
		OFFSET 1.363060 -1.794630 0.839290 
		CHANNELS 3 Zrotation Yrotation Xrotation
		JOINT LeftLeg
		{
			OFFSET 2.448110 -6.726130 0.000000 
			CHANNELS 3 Zrotation Yrotation Xrotation
			JOINT LeftFoot
			{
				OFFSET 2.562200 -7.039590 0.000000 
				CHANNELS 3 Zrotation Yrotation Xrotation
				JOINT LeftToeBase
				{
					OFFSET 0.157640 -0.433110 2.322550 
					CHANNELS 3 Zrotation Yrotation Xrotation
					End Site
					{
						OFFSET 0.000000 0.000000 0.000000 
					}
				}
			}
		}
	}
	JOINT RightUpLeg
	{
		OFFSET -1.305520 -1.794630 0.839290 
		CHANNELS 3 Zrotation Yrotation Xrotation
		JOINT RightLeg
		{
			OFFSET -2.542530 -6.985550 0.000000 
			CHANNELS 3 Zrotation Yrotation Xrotation
			JOINT RightFoot
			{
				OFFSET -2.568260 -7.056230 0.000000 
				CHANNELS 3 Zrotation Yrotation Xrotation
				JOINT RightToeBase
				{
					OFFSET -0.164730 -0.452590 2.363150 
					CHANNELS 3 Zrotation Yrotation Xrotation
					End Site
					{
						OFFSET 0.000000 0.000000 0.000000 
					}
				}
			}
		}
	}
	JOINT Spine
	{
		OFFSET 0.028270 2.035590 -0.193380 
		CHANNELS 3 Zrotation Yrotation Xrotation
		JOINT Spine1
		{
			OFFSET 0.056720 2.048850 -0.042750 
			CHANNELS 3 Zrotation Yrotation Xrotation
			JOINT Neck1
			{
				OFFSET -0.054170 1.746240 0.172020 
				CHANNELS 3 Zrotation Yrotation Xrotation
				JOINT Head
				{
					OFFSET 0.104070 1.761360 -0.123970 
					CHANNELS 3 Zrotation Yrotation Xrotation
					End Site
					{
						OFFSET 0.000000 0.000000 0.000000 
					}
				}
			}
			JOINT LeftArm
			{
				OFFSET 3.362410 1.200890 -0.311210 
				CHANNELS 3 Zrotation Yrotation Xrotation
				JOINT LeftForeArm
				{
					OFFSET 4.983000 -0.000000 -0.000000 
					CHANNELS 3 Zrotation Yrotation Xrotation
					JOINT LeftHand
					{
						OFFSET 3.483560 -0.000000 -0.000000 
						CHANNELS 3 Zrotation Yrotation Xrotation
						JOINT LeftHandIndex1
						{
							OFFSET 0.715260 -0.000000 -0.000000 
							CHANNELS 3 Zrotation Yrotation Xrotation
							End Site
							{
								OFFSET 0.000000 0.000000 0.000000 
							}
						}
					}
				}
			}
			JOINT RightArm
			{
				OFFSET -3.136600 1.374050 -0.404650 
				CHANNELS 3 Zrotation Yrotation Xrotation
				JOINT RightForeArm
				{
					OFFSET -5.241900 -0.000000 -0.000000 
					CHANNELS 3 Zrotation Yrotation Xrotation
					JOINT RightHand
					{
						OFFSET -3.444170 -0.000000 -0.000000 
						CHANNELS 3 Zrotation Yrotation Xrotation
						JOINT RightHandIndex1
						{
							OFFSET -0.622530 -0.000000 -0.000000 
							CHANNELS 3 Zrotation Yrotation Xrotation
							End Site
							{
								OFFSET 0.000000 0.000000 0.000000 
							}
						}
					}
				}
			}
		}
	}
}
MOTION
Frames: 15
Frame Time: 0.041667
12.738536 17.500519 0.458315 -7.204894 -36.928808 -9.139877 -5.548155 -19.620958 -77.958866 33.028463 17.525952 130.001223 0.469637 -4.104877 -6.157574 10.822600 -17.847200 -62.204200 23.165504 15.096058 -68.238389 -29.846856 -20.845068 121.196667 -0.696137 -0.602085 -14.011524 -5.502100 13.927900 -42.949400 0.411547 0.962646 -1.438921 -7.957999 0.627160 4.723240 2.259743 -1.719765 3.728119 -0.030500 -0.807700 0.776300 -83.524616 -15.516615 43.818407 10.923563 -20.519470 -3.418839 -0.538602 2.590478 -4.970874 -7.125000 0.000000 0.000000 84.973973 8.069256 20.219854 -10.503896 30.824940 -4.936665 1.870050 -1.009787 -1.591676 7.125000 0.000000 0.000000 
12.741440 17.512471 0.462001 -6.714906 -37.044541 -9.581511 -6.182952 -19.588948 -77.430384 32.986648 17.565712 129.847573 0.528311 -4.299102 -6.808785 10.841800 -17.856800 -62.266600 22.563038 15.072656 -68.181976 -29.940090 -20.771297 121.491644 -0.954255 0.952564 -14.000390 -4.587800 12.904000 -39.010000 0.460538 0.830485 -1.362158 -7.306033 0.496131 5.038187 2.297974 -1.529741 3.654423 -0.017400 -0.716000 0.759000 -83.922070 -15.744476 42.924622 10.782949 -20.395881 -3.397334 -0.516780 2.601797 -4.487848 -7.125000 0.000000 0.000000 84.489121 8.201537 21.018658 -10.510937 30.750251 -4.869759 1.855739 -0.960545 -1.514015 7.125000 0.000000 0.000000 
12.744121 17.525987 0.466916 -6.124410 -37.121570 -10.042920 -6.913924 -19.640488 -76.948885 32.936758 17.608955 129.668345 0.580983 -4.419512 -7.425616 10.798100 -17.834900 -62.124300 21.837689 15.011719 -68.195683 -30.043281 -20.700878 121.800983 -1.177729 2.361532 -13.980822 -3.744600 11.812500 -35.072000 0.492449 0.698129 -1.282316 -6.733161 0.365692 5.408018 2.368772 -1.352672 3.591027 0.005100 -0.629400 0.753800 -84.142499 -16.020201 42.187488 10.675125 -20.306417 -3.381031 -0.499274 2.606668 -4.210241 -7.125000 0.000000 0.000000 84.162390 8.237679 21.803895 -10.746384 30.922425 -4.904883 1.854445 -0.931909 -1.477643 7.125000 0.000000 0.000000 
12.747472 17.538833 0.467028 -5.520245 -37.185490 -10.514405 -7.605885 -19.711261 -76.523695 32.880795 17.656285 129.467500 0.632153 -4.531922 -8.003099 10.787000 -17.829300 -62.087800 21.126957 14.963489 -68.213796 -30.143680 -20.633621 122.100527 -1.347794 3.547825 -13.879914 -3.035900 10.753000 -31.451200 0.529402 0.546891 -1.206615 -6.118447 0.213397 5.763397 2.391505 -1.141806 3.568549 -0.000200 -0.528900 0.798800 -84.338005 -16.327816 41.488912 10.580913 -20.228740 -3.366536 -0.488696 2.606661 -4.026554 -7.125000 0.000000 0.000000 83.839720 8.195700 22.636828 -11.228598 31.321683 -5.037663 1.873096 -0.884485 -1.667334 7.125000 0.000000 0.000000 
12.751829 17.548886 0.462559 -4.782663 -37.249360 -11.127339 -8.384947 -19.818389 -76.046950 32.822682 17.707159 129.255521 0.733955 -4.811037 -9.010379 10.849400 -17.860600 -62.291500 20.369294 14.892929 -68.183195 -30.241461 -20.565221 122.393089 -1.467755 4.533791 -13.675832 -2.442300 9.732200 -28.113800 0.649500 0.484586 -1.085676 -4.733435 0.009851 6.229144 2.314466 -0.897477 3.459334 -0.018400 -0.419300 0.792600 -85.147561 -16.823938 40.625454 10.418448 -20.099746 -3.348701 -0.466548 2.619445 -3.566941 -7.125000 0.000000 0.000000 82.827607 8.590060 23.349468 -11.410137 31.273283 -5.068630 1.892382 -0.722632 -2.131352 7.125000 0.000000 0.000000 
12.759201 17.565418 0.454964 -3.900913 -37.305355 -11.778563 -9.254333 -20.035296 -75.548498 32.752772 17.771816 128.987608 0.931033 -5.353169 -10.759907 10.893300 -17.882500 -62.434500 19.278816 14.772094 -68.418468 -30.391527 -20.468631 122.847371 -1.628467 6.130553 -13.184437 -1.488700 7.708300 -21.831400 0.965240 0.457973 -0.853818 -1.462906 -0.409857 7.333913 3.019097 -1.293618 3.492256 0.731200 -0.587700 1.034900 -87.272090 -17.974835 38.769733 10.071981 -19.782425 -3.310133 -0.374064 2.645854 -2.437792 -7.125000 0.000000 0.000000 80.282531 9.651590 24.706372 -11.280058 30.647557 -4.916138 1.881776 -0.451415 -2.398171 7.125000 0.000000 0.000000 
12.762440 17.567205 0.456863 -3.317810 -37.102444 -12.350753 -10.107788 -20.459989 -75.049930 32.700524 17.788222 128.824031 0.955221 -5.150087 -11.226157 10.854100 -17.862900 -62.306900 18.642179 14.442354 -68.262529 -30.457073 -20.438488 123.011896 -1.686222 6.474445 -13.277099 -1.502600 7.742500 -21.934700 0.648001 -0.069285 -0.914690 -4.034770 -0.408994 7.007180 2.562630 -0.329506 3.159432 0.094600 -0.134500 0.655700 -85.043945 -17.453317 38.637924 10.224063 -19.910389 -3.341342 -0.425314 2.651060 -3.060397 -7.125000 0.000000 0.000000 82.593893 9.355374 25.088891 -11.144720 31.020299 -4.901448 1.859809 -0.793307 -1.162357 7.125000 0.000000 0.000000 
12.765233 17.571562 0.460437 -2.610296 -37.071660 -13.033963 -11.008276 -20.660932 -74.452948 32.624710 17.824538 128.602042 0.869584 -5.024201 -10.422995 10.293800 -17.571800 -60.465700 18.012753 14.241999 -67.979557 -30.514152 -20.397942 123.160245 -1.749718 6.875744 -13.365022 -1.496400 7.727100 -21.888300 0.508370 -0.208547 -0.920541 -4.773368 -0.420003 6.947962 2.688554 -0.336321 3.208344 0.126600 -0.130200 0.691000 -84.307616 -17.284078 38.673827 10.285992 -19.961347 -3.354927 -0.451647 2.653266 -3.370826 -7.125000 0.000000 0.000000 83.314666 9.186137 25.251879 -11.190247 31.232187 -4.925518 1.848335 -0.904620 -0.882970 7.125000 0.000000 0.000000 
12.766909 17.571785 0.462224 -1.784702 -37.088326 -13.795846 -11.990411 -20.781115 -73.858365 32.563182 17.860929 128.408820 0.850498 -4.951669 -10.289766 9.992000 -17.405400 -59.461700 17.316382 14.093230 -67.750182 -30.574485 -20.358670 123.316761 -1.783532 7.104867 -13.402795 -1.514900 7.772700 -22.025800 0.455628 -0.127610 -0.897621 -4.674706 -0.427086 6.935171 2.668027 -0.389646 3.262277 0.099400 -0.158600 0.746200 -84.252327 -17.275124 38.863802 10.306858 -19.993356 -3.360230 -0.470361 2.651551 -3.495897 -7.125000 0.000000 0.000000 83.336433 9.139130 25.210836 -11.283808 31.314071 -4.976237 1.861327 -0.889584 -1.046539 7.125000 0.000000 0.000000 
12.768919 17.573908 0.468256 0.023498 -36.925967 -15.477842 -14.226543 -21.414978 -72.507071 32.448654 17.923928 128.031123 0.878179 -4.369614 -11.197523 10.159100 -17.498400 -60.018800 15.730424 13.478184 -67.260982 -30.688122 -20.281998 123.594309 -1.840313 7.619542 -13.353030 -1.569400 7.904800 -22.425300 0.476422 0.203033 -0.931816 -3.316614 -0.488100 6.306135 2.575202 -0.420378 3.317589 0.081000 -0.184400 0.795800 -85.242557 -16.914252 38.890859 10.277582 -20.026509 -3.365589 -0.435379 2.648576 -3.115534 -7.125000 0.000000 0.000000 82.497127 8.604275 24.761325 -11.571423 31.313057 -5.050767 1.887061 -0.712598 -1.974459 7.125000 0.000000 0.000000 
12.770148 17.575695 0.466581 0.184139 -37.134872 -15.696727 -14.213739 -21.345527 -72.543296 32.453305 17.940847 128.011211 0.915057 -4.158175 -11.802716 10.608400 -17.738100 -61.503300 15.772582 13.589819 -67.104897 -30.676407 -20.250066 123.588762 -1.836771 7.637540 -13.319955 -1.540800 7.835800 -22.216500 0.890513 0.966768 -1.235110 0.481288 -0.448502 4.320635 2.616248 -0.904472 3.675861 0.416500 -0.441500 1.122600 -88.696845 -15.722039 38.192089 10.163817 -20.063421 -3.382476 -0.294382 2.641363 -1.814256 -7.125000 0.000000 0.000000 79.506946 6.854825 24.285802 -12.249186 31.248167 -5.181617 1.881415 -0.244689 -4.078219 7.125000 0.000000 0.000000 
12.770930 17.575583 0.464905 0.182068 -37.109599 -15.716414 -14.206540 -21.360201 -72.550782 32.449574 17.946419 127.989735 0.933771 -4.120971 -12.038173 10.766500 -17.818900 -62.021100 15.769347 13.551079 -67.048725 -30.679751 -20.243828 123.600800 -1.854878 7.768348 -13.334387 -1.493800 7.720800 -21.869100 0.874165 0.909140 -1.225889 0.371897 -0.466442 4.384136 2.794781 -1.045214 3.672497 0.553800 -0.500400 1.119800 -88.588732 -15.740047 38.073463 10.175345 -20.066866 -3.385345 -0.283221 2.640523 -1.811871 -7.125000 0.000000 0.000000 79.656146 6.849773 24.389755 -12.296972 31.313610 -5.173952 1.874564 -0.292418 -3.847243 7.125000 0.000000 0.000000 
12.771153 17.575360 0.464682 0.153322 -37.006486 -15.692056 -14.193740 -21.484380 -72.600539 32.439686 17.945972 127.966750 0.932607 -4.202031 -11.946964 10.723000 -17.796800 -61.878600 15.759877 13.402188 -67.040377 -30.690654 -20.238990 123.625443 -1.877335 7.798836 -13.477150 -1.544800 7.845500 -22.245800 0.874387 0.853914 -1.225880 0.329406 -0.487122 4.391327 2.812605 -1.059247 3.647454 0.568600 -0.505300 1.089100 -88.572729 -15.734399 38.109287 10.189774 -20.078616 -3.383273 -0.283494 2.633361 -1.854923 -7.125000 0.000000 0.000000 79.708059 6.899121 24.405391 -12.291040 31.321144 -5.179937 1.879025 -0.299847 -3.667485 7.125000 0.000000 0.000000 
12.770930 17.578264 0.467251 0.147679 -36.963791 -15.687752 -14.228705 -21.583275 -72.563775 32.428704 17.952176 127.928019 0.922217 -4.074780 -11.966506 10.824900 -17.848300 -62.211700 15.759801 13.324556 -66.980327 -30.696354 -20.232234 123.641429 -1.891848 7.839525 -13.550467 -1.567700 7.900600 -22.412600 0.881676 0.848339 -1.221007 0.372381 -0.491329 4.404521 2.820925 -1.067550 3.615981 0.586900 -0.507700 1.048600 -88.639179 -15.720125 38.216075 10.203549 -20.095532 -3.382608 -0.295547 2.628018 -1.957538 -7.125000 0.000000 0.000000 79.655810 6.881119 24.432421 -12.349330 31.378309 -5.212049 1.885211 -0.285004 -3.607816 7.125000 0.000000 0.000000 
12.772717 17.581727 0.476969 1.890853 -36.750015 -17.310339 -16.479133 -22.131637 -71.119709 32.307035 18.015340 127.534060 0.909979 -3.369843 -12.579585 10.903300 -17.887500 -62.467200 14.161619 12.730188 -66.459437 -30.799686 -20.163477 123.883190 -1.952336 8.537710 -13.383989 -1.527400 7.803200 -22.118000 0.775783 0.925041 -1.159673 0.584827 -0.541917 4.454493 2.872991 -1.084165 3.642422 0.607900 -0.514000 1.057700 -88.602027 -15.733455 38.296088 10.187377 -20.091445 -3.379264 -0.298678 2.629647 -1.996127 -7.125000 0.000000 0.000000 79.688303 6.798017 24.436661 -12.465751 31.448146 -5.217591 1.871106 -0.304933 -3.633612 7.125000 0.000000 0.000000 
